Coordinates
version=1
nRows=10
nColumns=40
inDegrees=yes

Units are S.I. units (second, meters, Newtons, ...)
If the header above contains a line with 'inDegrees', this indicates whether rotational values are in degrees (yes) or radians (no).

endheader
time	pelvis_tilt	pelvis_list	pelvis_rotation	pelvis_tx	pelvis_ty	pelvis_tz	hip_flexion_r	hip_adduction_r	hip_rotation_r	knee_angle_r	knee_angle_r_beta	ankle_angle_r	subtalar_angle_r	mtp_angle_r	hip_flexion_l	hip_adduction_l	hip_rotation_l	knee_angle_l	knee_angle_l_beta	ankle_angle_l	subtalar_angle_l	mtp_angle_l	lumbar_extension	lumbar_bending	lumbar_rotation	arm_flex_r	arm_add_r	arm_rot_r	elbow_flex_r	pro_sup_r	wrist_flex_r	wrist_dev_r	arm_flex_l	arm_add_l	arm_rot_l	elbow_flex_l	pro_sup_l	wrist_flex_l	wrist_dev_l
      0.98500000	      1.79990115	      8.03660580	     -2.92222155	      0.63497757	      0.93659226	      0.21219362	     21.71500789	    -19.56543845	    -10.66346399	     69.07504385	      1.20558695	     -5.68362537	    -17.06820928	      0.00000000	      1.55234077	      8.44197141	    -19.99282570	      9.55917957	      0.16683916	      2.75487497	      5.60796299	      0.00000000	     -1.46183166	     -9.17902519	      2.13415711	     44.12726975	    -16.11550861	     44.12726975	     74.97448430	     44.99535444	      0.00000000	      0.00000000	     44.12726975	    -16.11550861	     44.12726975	     74.97448430	     44.99535444	      0.00000000	      0.00000000
      0.99000000	      2.16988719	      7.29905206	     -2.40871817	      0.64123519	      0.93816613	      0.21087068	     21.40478204	    -18.67459737	    -11.43975982	     67.85021237	      1.18420960	     -5.17777877	    -16.68760394	      0.00000000	      0.47962342	      7.75470968	    -19.67122535	      9.27279579	      0.16184082	      3.07467132	      6.30795079	      0.00000000	     -2.12516006	     -8.28840294	      1.41623357	     44.13115800	    -16.10730363	     44.13115800	     74.97485335	     44.99553750	      0.00000000	      0.00000000	     44.13115800	    -16.10730363	     44.13115800	     74.97485335	     44.99553750	      0.00000000	      0.00000000
      0.99500000	      2.32413235	      6.83241666	     -2.01798707	      0.64742102	      0.93901518	      0.20993712	     21.54459523	    -18.01282564	    -11.91357135	     66.77701382	      1.16547876	     -4.69220734	    -16.39201136	      0.00000000	     -0.31439182	      7.32976290	    -19.42000481	      8.98550130	      0.15682658	      3.35017688	      6.81733485	      0.00000000	     -2.46084486	     -7.74070611	      0.88608548	     44.13491679	    -16.09939400	     44.13491679	     74.97520671	     44.99570851	      0.00000000	      0.00000000	     44.13491679	    -16.09939400	     44.13491679	     74.97520671	     44.99570851	      0.00000000	      0.00000000
      1.00000000	      2.21345916	      6.86193102	     -1.78944467	      0.65354063	      0.93900183	      0.20956646	     22.27212965	    -17.83067654	    -11.98264674	     65.94158791	      1.15089782	     -4.35146286	    -16.27240648	      0.00000000	     -0.71820444	      7.40232427	    -19.36021498	      8.83305298	      0.15416586	      3.54965691	      7.02866937	      0.00000000	     -2.38692755	     -7.73896349	      0.87528037	     44.13516487	    -16.09887289	     44.13516487	     74.97522989	     44.99571957	      0.00000000	      0.00000000	     44.13516487	    -16.09887289	     44.13516487	     74.97522989	     44.99571957	      0.00000000	      0.00000000
      1.00500000	      2.60550242	      6.00016516	     -1.25779038	      0.65979819	      0.94037944	      0.20819511	     21.82555947	    -16.80138311	    -12.80238628	     64.43638317	      1.12462704	     -3.77776816	    -15.73491832	      0.00000000	     -1.83204000	      6.55883039	    -18.88459334	      8.44202580	      0.14734115	      3.90304017	      7.72070246	      0.00000000	     -3.06180933	     -6.64155483	      0.12994713	     44.13880437	    -16.09123775	     44.13880437	     74.97556845	     44.99587904	      0.00000000	      0.00000000	     44.13880437	    -16.09123775	     44.13880437	     74.97556845	     44.99587904	      0.00000000	      0.00000000
      1.01000000	      2.47966911	      6.04612004	     -1.04452500	      0.66594530	      0.94017398	      0.20792263	     22.51572539	    -16.63056264	    -12.84890372	     63.46386254	      1.10765336	     -3.45050442	    -15.58954876	      0.00000000	     -2.20882095	      6.63113401	    -18.77701396	      8.30818623	      0.14500520	      4.13276362	      7.92683637	      0.00000000	     -2.95465293	     -6.67856355	      0.12209494	     44.13909405	    -16.09063104	     44.13909405	     74.97559525	     44.99589149	      0.00000000	      0.00000000	     44.13909405	    -16.09063104	     44.13909405	     74.97559525	     44.99589149	      0.00000000	      0.00000000
      1.01500000	      2.88944556	      5.20119843	     -0.46341653	      0.67210230	      0.94141655	      0.20640819	     22.00632235	    -15.64020671	    -13.68487635	     61.79240176	      1.07848086	     -3.02760258	    -15.12378633	      0.00000000	     -3.28207017	      5.78149764	    -18.25563765	      7.98238345	      0.13931887	      4.48489581	      8.44658325	      0.00000000	     -3.65600304	     -5.59489617	     -0.71465803	     44.14266248	    -16.08316770	     44.14266248	     74.97592377	     44.99604214	      0.00000000	      0.00000000	     44.14266248	    -16.08316770	     44.14266248	     74.97592377	     44.99604214	      0.00000000	      0.00000000
      1.02000000	      2.76656475	      5.33716903	     -0.24559192	      0.67819701	      0.94100540	      0.20611012	     22.67191031	    -15.60139686	    -13.71411346	     60.73417508	      1.06001132	     -2.78651056	    -15.00359258	      0.00000000	     -3.61828105	      5.93796885	    -18.19526769	      7.91672762	      0.13817296	      4.71908932	      8.57149149	      0.00000000	     -3.57301646	     -5.69832939	     -0.67386834	     44.14286087	    -16.08275345	     44.14286087	     74.97594194	     44.99605037	      0.00000000	      0.00000000	     44.14286087	    -16.08275345	     44.14286087	     74.97594194	     44.99605037	      0.00000000	      0.00000000
      1.02500000	      2.75954279	      4.96086280	      0.01826030	      0.68448528	      0.94098565	      0.20558389	     22.92851463	    -14.96199112	    -13.91869453	     59.32386511	      1.03539677	     -2.17332009	    -14.38909853	      0.00000000	     -4.23604068	      5.57032160	    -17.87644023	      7.55727060	      0.13189925	      5.06211567	      8.95576191	      0.00000000	     -3.64290589	     -5.24939932	     -0.96041889	     44.14391249	    -16.08055815	     44.14391249	     74.97603813	     44.99609376	      0.00000000	      0.00000000	     44.14391249	    -16.08055815	     44.14391249	     74.97603813	     44.99609376	      0.00000000	      0.00000000
      1.03000000	      3.28133501	      4.17639897	      0.73650133	      0.69054696	      0.94221207	      0.20379737	     22.15847838	    -14.10924647	    -14.91842983	     57.33784792	      1.00073423	     -2.18246927	    -14.23669894	      0.00000000	     -5.31417851	      4.73175134	    -17.23875577	      7.41704015	      0.12945177	      5.40148090	      9.21735594	      0.00000000	     -4.45989332	     -4.17281651	     -1.84572492	     44.14733653	    -16.07342181	     44.14733653	     74.97634959	     44.99623225	      0.00000000	      0.00000000	     44.14733653	    -16.07342181	     44.14733653	     74.97634959	     44.99623225	      0.00000000	      0.00000000
